<?xml version="1.0" standalone="no"?>
<!DOCTYPE svg PUBLIC "-//W3C//DTD SVG 20010904//EN"
 "http://www.w3.org/TR/2001/REC-SVG-20010904/DTD/svg10.dtd">
<svg version="1.0" xmlns="http://www.w3.org/2000/svg"
 width="906.000000pt" height="906.000000pt" viewBox="0 0 906.000000 906.000000"
 preserveAspectRatio="xMidYMid meet">
<metadata>
Created by potrace 1.14, written by Peter Selinger 2001-2017
</metadata>
<g transform="translate(0.000000,906.000000) scale(0.100000,-0.100000)"
fill="#000000" stroke="none">
<path d="M1783 8896 c-97 -32 -176 -108 -213 -206 -57 -152 19 -338 167 -411
40 -20 63 -24 143 -24 79 0 103 4 142 23 86 42 163 146 156 209 -3 26 -5 24
-37 -30 -52 -91 -138 -147 -237 -155 -89 -7 -152 17 -219 82 -42 42 -57 65
-70 111 -54 185 74 358 265 359 104 0 208 -62 264 -159 47 -80 65 -46 21 41
-31 63 -84 117 -142 145 -58 28 -178 35 -240 15z"/>
<path d="M4595 8774 c-199 -12 -445 -51 -656 -104 -75 -19 -273 -85 -339 -113
-56 -24 -120 -75 -120 -96 0 -45 77 -32 280 47 69 27 177 61 240 76 63 15 142
33 175 41 184 43 272 50 610 50 489 0 600 -21 1030 -190 228 -90 388 -136 407
-117 18 18 -55 78 -162 131 -310 156 -790 262 -1240 274 -91 3 -192 3 -225 1z"/>
<path d="M2430 8463 c-96 -48 -400 -361 -547 -563 -244 -335 -365 -545 -493
-854 -198 -480 -296 -1022 -276 -1521 19 -451 98 -820 279 -1290 34 -89 138
-301 218 -444 42 -77 210 -328 260 -391 296 -370 541 -598 900 -838 244 -162
361 -230 470 -272 69 -26 79 -25 79 4 0 37 -52 75 -223 164 -339 175 -568 347
-895 670 -216 215 -445 530 -606 837 -122 231 -253 566 -300 765 -85 365 -107
548 -106 907 0 458 39 706 175 1137 117 368 312 742 539 1036 76 97 260 309
314 360 26 25 100 97 164 160 67 65 115 105 112 93 -4 -15 8 -35 42 -74 26
-30 53 -56 61 -59 7 -3 22 -20 33 -38 13 -20 28 -32 42 -32 17 0 13 -6 -23
-29 -48 -30 -148 -131 -168 -170 -11 -19 -10 -26 2 -38 13 -14 20 -13 62 8 57
29 138 100 176 156 37 53 37 73 2 73 -25 0 -25 1 -10 18 10 10 17 23 17 29 0
20 -192 188 -212 186 -10 -2 -17 1 -14 6 3 5 0 14 -7 20 -10 8 -27 4 -67 -16z"/>
<path d="M2244 8449 c-17 -18 -16 -20 6 -44 24 -26 54 -33 65 -15 10 16 -4 47
-29 64 -22 14 -25 13 -42 -5z"/>
<path d="M2981 8215 c-54 -26 -155 -99 -224 -164 l-37 -35 -16 22 c-8 12 -24
22 -35 22 -29 0 -35 -28 -11 -52 l21 -21 -119 -126 c-162 -173 -215 -237 -356
-433 -56 -79 -151 -242 -217 -373 -299 -596 -394 -1334 -256 -2000 125 -603
424 -1144 876 -1585 171 -168 271 -250 443 -367 226 -153 508 -290 765 -373
55 -17 126 -40 157 -51 87 -28 303 -66 493 -84 564 -56 1219 62 1675 303 218
115 401 231 540 341 304 241 566 538 765 866 258 427 424 963 425 1376 0 124
-6 149 -36 149 -23 0 -49 -120 -79 -355 -34 -269 -96 -494 -213 -775 -99 -238
-162 -354 -299 -550 -194 -277 -478 -558 -753 -746 -389 -266 -780 -421 -1270
-501 -153 -25 -187 -27 -460 -27 -258 0 -312 2 -428 22 -502 83 -895 240
-1302 521 -177 122 -487 409 -602 556 -159 203 -316 459 -402 655 -16 36 -39
88 -51 115 -51 114 -133 395 -169 580 -89 457 -58 984 85 1445 23 74 44 137
47 140 2 3 1 -16 -2 -42 l-7 -47 38 -6 c51 -8 119 -42 136 -69 20 -31 131
-378 262 -826 108 -367 115 -391 128 -395 7 -3 39 3 72 13 l60 18 38 100 c21
54 57 155 81 224 64 181 162 459 179 505 17 46 12 55 67 -120 42 -133 66 -213
150 -505 57 -201 71 -240 85 -240 13 0 118 40 127 48 4 4 39 90 78 192 263
685 391 1005 412 1027 11 12 37 24 58 28 32 5 39 11 44 37 14 73 16 71 -86 65
-51 -2 -169 -1 -262 4 -94 5 -171 7 -172 6 -1 -1 -4 -23 -8 -48 l-7 -46 103
-7 c110 -7 144 -20 154 -60 5 -23 -58 -227 -146 -466 -17 -47 -46 -128 -64
-180 -19 -52 -55 -151 -80 -220 -26 -69 -49 -131 -52 -139 -10 -29 -24 8 -74
189 -238 866 -229 821 -176 855 13 9 52 19 87 23 l63 7 9 44 c5 24 5 47 0 51
-4 5 -42 5 -83 0 -41 -5 -166 -9 -276 -10 l-201 0 -7 -31 c-12 -61 -9 -67 37
-74 90 -15 127 -51 166 -160 l28 -78 -33 -86 c-18 -47 -65 -174 -104 -281
-135 -367 -165 -447 -174 -451 -8 -4 -54 153 -191 656 -86 316 -92 363 -52
390 13 8 52 18 86 21 55 6 64 10 72 32 6 14 9 37 7 51 -2 21 -8 25 -28 23 -14
-2 -141 -5 -282 -9 l-258 -5 14 38 c88 241 271 563 454 799 102 132 307 327
512 490 134 106 199 167 193 181 -8 22 -72 17 -132 -11z"/>
<path d="M2014 8206 c-19 -14 -19 -15 5 -40 19 -20 28 -23 42 -15 24 12 24 31
1 52 -22 21 -23 21 -48 3z"/>
<path d="M6630 8097 c0 -23 44 -75 218 -256 181 -188 207 -217 293 -326 83
-105 143 -194 188 -282 23 -43 66 -121 96 -173 30 -52 63 -113 74 -135 21 -46
38 -62 64 -62 59 1 -3 220 -111 392 -57 90 -155 226 -207 289 -217 261 -322
371 -444 468 -102 82 -171 116 -171 85z"/>
<path d="M2209 7718 c-24 -17 -51 -41 -61 -52 -55 -65 -271 -431 -321 -544
-36 -80 -46 -132 -24 -132 20 0 65 57 119 155 140 250 181 315 251 395 21 25
57 76 79 113 57 98 40 125 -43 65z"/>
<path d="M5430 7241 c0 -4 57 -16 127 -25 70 -10 129 -18 130 -20 1 -1 7 -67
12 -146 21 -284 12 -1032 -15 -1246 l-6 -51 -76 -11 c-124 -19 -128 -18 -136
26 -6 43 -47 125 -79 161 -40 44 -135 98 -222 126 l-87 29 101 22 c251 56 361
165 349 344 -7 90 -44 158 -118 215 -102 79 -101 79 -652 83 l-488 3 0 -25 0
-26 110 0 110 0 0 -650 0 -649 -107 -3 c-103 -3 -108 -4 -111 -25 l-3 -23 351
0 351 0 -3 23 c-3 21 -8 22 -110 25 l-108 3 0 329 0 330 113 0 c195 -1 259
-28 308 -134 28 -61 29 -69 32 -227 2 -157 3 -166 29 -215 38 -73 76 -107 142
-128 89 -27 154 -31 240 -12 66 15 76 20 76 39 0 21 -4 22 -64 19 -112 -6
-131 20 -142 195 l-7 110 484 -1 c266 0 536 1 599 4 l115 5 22 175 c26 202 25
200 16 200 -5 0 -33 -65 -63 -144 -63 -166 -40 -150 -229 -166 -122 -11 -249
-3 -376 24 -110 23 -102 13 -110 140 -11 171 0 1013 15 1143 l13 111 76 11
c42 6 100 13 129 17 131 16 22 24 -343 24 -217 0 -395 -4 -395 -9z m388 -763
l2 -728 -34 0 -34 0 -5 108 c-2 59 -4 179 -3 267 0 88 2 368 4 623 l2 463 33
-3 32 -3 3 -727z m-667 195 c36 -16 54 -33 75 -69 25 -43 29 -61 32 -150 2
-56 -1 -125 -7 -155 -14 -63 -54 -131 -92 -153 -32 -19 -179 -35 -316 -36
l-93 0 0 296 0 296 178 -4 c152 -4 184 -7 223 -25z"/>
<path d="M7632 6779 c-42 -21 -43 -23 -37 -59 l6 -38 -76 -36 c-86 -41 -92
-42 -117 -20 -10 9 -30 16 -45 16 -16 -1 -66 -3 -113 -5 -107 -4 -193 -41
-267 -116 -28 -28 -57 -51 -66 -51 -8 0 -25 -16 -38 -35 -21 -30 -30 -35 -79
-40 -84 -8 -183 -34 -205 -54 -11 -10 -43 -21 -70 -24 -54 -6 -142 -45 -166
-74 -38 -44 -53 -177 -26 -229 9 -18 33 -42 54 -54 55 -32 82 -20 101 47 l14
52 -31 40 c-17 21 -31 44 -31 50 0 21 72 90 106 101 19 6 34 15 34 19 0 13 49
31 84 31 19 0 53 7 76 15 55 20 114 19 130 -1 8 -8 13 -40 13 -72 0 -49 -4
-62 -27 -85 -15 -15 -34 -43 -42 -62 -8 -19 -25 -42 -38 -50 -30 -20 -36 -38
-46 -155 -7 -93 -42 -258 -60 -292 -6 -10 -10 -30 -10 -44 0 -16 -11 -37 -26
-51 -19 -18 -25 -31 -23 -57 2 -19 -3 -41 -10 -49 -7 -9 -16 -40 -20 -70 -5
-34 -15 -61 -29 -75 -12 -12 -22 -26 -22 -32 0 -5 -9 -10 -20 -10 -12 0 -37
-16 -57 -35 -47 -46 -94 -58 -185 -48 l-73 8 -8 55 c-8 60 2 97 34 126 19 17
21 16 49 -4 64 -48 109 -7 75 68 -24 53 -38 63 -89 64 -35 1 -48 -4 -65 -24
-33 -38 -81 -141 -76 -164 2 -12 7 -47 10 -79 9 -82 35 -110 118 -125 36 -7
72 -9 82 -6 9 4 42 1 75 -6 54 -12 61 -11 92 8 19 12 43 30 53 42 12 13 31 20
57 20 21 0 55 7 75 15 68 29 106 19 134 -36 11 -23 29 -41 43 -45 34 -8 132 2
196 21 30 9 73 19 95 22 22 3 49 12 60 19 11 8 30 14 44 14 15 0 38 15 62 40
24 25 47 40 62 40 13 0 50 20 81 45 32 25 62 45 67 45 5 0 15 12 21 26 7 14
26 33 44 42 18 9 46 34 62 55 32 39 77 170 85 244 3 23 12 49 21 58 9 10 14
27 11 43 -2 15 -10 61 -16 102 -6 41 -18 87 -25 102 -8 15 -14 52 -14 82 0 54
-31 134 -69 179 -16 19 -146 87 -167 87 -24 0 -64 23 -64 37 0 16 -29 28 -94
38 -27 3 -60 14 -73 22 -16 10 -48 16 -93 17 -39 0 -70 4 -70 9 0 4 9 28 20
51 15 33 30 48 63 64 l45 21 55 -20 c55 -20 55 -20 114 0 38 13 83 19 128 19
57 -1 81 4 128 26 38 19 62 37 70 55 6 14 21 38 33 53 19 23 21 33 13 60 -5
18 -9 34 -9 35 0 12 -73 -1 -108 -18z m-334 -490 c18 -16 45 -31 60 -35 68
-15 123 -37 132 -53 5 -10 7 -34 3 -54 -4 -25 1 -49 14 -79 31 -65 35 -83 35
-156 0 -74 -11 -129 -41 -212 -11 -30 -20 -78 -21 -107 0 -28 -4 -55 -10 -58
-5 -3 -10 -22 -10 -41 0 -27 -8 -41 -34 -65 -19 -16 -48 -51 -66 -78 -43 -68
-113 -121 -159 -121 -20 0 -49 -9 -66 -20 -16 -11 -42 -20 -57 -20 -15 0 -44
-9 -65 -20 -21 -10 -59 -25 -84 -31 -43 -11 -49 -11 -74 9 -15 12 -37 22 -48
22 -27 0 -57 28 -57 52 0 25 38 115 64 150 11 16 23 54 27 87 4 34 15 70 27
87 29 39 41 102 42 206 0 76 3 90 21 107 17 16 21 28 16 55 -4 27 1 48 20 83
19 36 24 57 20 86 -6 44 18 104 71 177 43 59 72 71 147 64 46 -5 67 -13 93
-35z"/>
<path d="M1658 6698 c-54 -84 -124 -416 -158 -747 -13 -131 -13 -494 0 -631
13 -140 29 -194 58 -198 39 -6 46 37 25 158 -14 84 -18 161 -18 385 0 371 20
538 94 775 39 126 57 233 45 263 -9 24 -29 21 -46 -5z"/>
<path d="M4022 6479 c-20 -23 -70 -59 -109 -81 -40 -22 -75 -44 -79 -49 -3 -5
-13 -9 -22 -9 -19 -1 -112 -135 -112 -162 0 -8 -8 -26 -19 -39 -10 -13 -21
-37 -24 -54 -3 -16 -10 -50 -17 -75 -6 -24 -8 -56 -4 -70 3 -14 8 -61 9 -105
2 -47 12 -103 24 -138 25 -72 98 -159 169 -201 29 -17 69 -41 89 -53 37 -22
128 -38 193 -34 145 8 242 92 317 272 22 54 26 79 27 159 0 87 -3 100 -32 157
-18 34 -32 71 -32 81 0 11 -8 29 -17 40 -10 12 -25 32 -34 44 -9 13 -38 34
-63 47 -61 32 -91 21 -101 -38 -6 -35 -3 -45 18 -71 14 -16 28 -39 32 -50 3
-11 10 -20 15 -20 33 0 53 -115 34 -190 -8 -30 -14 -71 -14 -92 0 -25 -5 -41
-15 -44 -10 -4 -15 -20 -15 -49 0 -38 -3 -44 -33 -58 -18 -9 -54 -22 -80 -29
-41 -11 -54 -10 -101 6 -51 18 -56 22 -76 72 -12 29 -30 60 -41 70 -10 9 -19
29 -19 43 0 14 -7 44 -16 67 -14 38 -14 51 -1 137 9 55 25 113 39 137 13 24
34 64 48 90 41 76 64 100 99 100 41 0 91 21 116 49 39 45 14 133 -48 168 -40
22 -67 15 -105 -28z"/>
<path d="M3985 6499 c-4 -6 -5 -13 -2 -16 7 -7 27 6 27 18 0 12 -17 12 -25 -2z"/>
<path d="M7725 6318 c-15 -85 24 -395 63 -508 36 -105 80 -56 81 90 2 150 -46
398 -84 440 -28 31 -53 21 -60 -22z"/>
<path d="M2520 5243 c0 -45 -29 -445 -35 -483 -3 -19 -16 -177 -30 -350 -24
-307 -40 -472 -51 -537 l-5 -33 134 0 134 0 7 103 c4 56 11 165 16 242 6 77
20 282 31 455 11 173 22 317 24 319 5 5 -3 30 93 -294 88 -297 154 -529 223
-787 l10 -38 145 0 145 0 16 38 c8 20 39 102 69 182 29 80 80 217 114 305 59
152 104 272 188 500 l37 100 3 -95 c4 -112 -17 -987 -24 -1012 -5 -17 6 -18
143 -18 l148 0 -3 56 c-5 73 16 1172 25 1287 l6 87 -219 -2 -218 -3 -17 -55
c-9 -30 -65 -174 -124 -320 -93 -227 -184 -465 -242 -628 -8 -24 -17 -42 -18
-40 -2 2 -30 103 -64 225 -33 122 -94 329 -136 460 -41 131 -81 266 -87 301
l-11 62 -214 0 -213 0 0 -27z"/>
<path d="M4823 5215 c-28 -13 -56 -31 -61 -42 -7 -12 -6 -49 0 -108 6 -49 11
-279 11 -510 1 -445 -8 -583 -44 -664 -23 -52 -24 -94 -5 -110 8 -7 40 -13 72
-14 87 -4 89 1 89 258 0 115 4 408 9 650 6 345 11 445 22 462 18 29 18 53 -2
81 -19 27 -26 27 -91 -3z"/>
<path d="M5585 5201 c-11 -5 -55 -59 -98 -120 -229 -330 -387 -521 -429 -521
-21 0 -128 -109 -128 -131 0 -29 39 -63 120 -104 73 -37 113 -64 340 -233 214
-159 270 -204 311 -253 52 -62 89 -78 134 -56 42 20 65 54 72 107 6 46 -8 70
-43 70 -37 0 -116 35 -183 81 -76 52 -90 70 -22 28 96 -60 304 -87 443 -58
162 34 318 167 318 271 0 59 -78 105 -131 77 -13 -6 -55 -39 -94 -72 -96 -83
-140 -102 -240 -102 -95 0 -145 22 -194 84 -40 50 -58 94 -67 159 l-7 52 304
0 c319 0 360 5 406 44 25 21 28 32 31 101 14 263 -198 465 -487 465 -293 0
-484 -171 -521 -466 -13 -99 1 -219 34 -308 29 -76 51 -112 110 -175 47 -50
22 -41 -44 16 -42 35 -84 68 -230 174 -80 58 -127 105 -134 134 -9 34 25 98
82 158 47 47 154 181 234 291 40 55 136 158 187 199 17 14 21 26 19 55 -3 35
-5 37 -38 39 -19 1 -44 -2 -55 -6z m477 -336 c52 -36 108 -138 108 -197 l0
-38 -240 0 -240 0 6 43 c11 71 44 135 91 177 52 45 64 49 160 46 62 -1 78 -5
115 -31z"/>
<path d="M7175 4930 c-58 -14 -104 -39 -149 -81 l-46 -42 0 52 0 51 -198 0
-199 0 -7 -282 c-4 -156 -13 -364 -21 -463 -8 -99 -17 -213 -20 -252 l-6 -73
213 0 213 0 2 208 c3 329 34 442 138 507 46 28 55 30 150 30 l102 0 -3 40 c-2
22 -5 98 -8 169 -3 93 -8 131 -17 137 -17 10 -102 10 -144 -1z"/>
<path d="M1612 4860 c-29 -47 -8 -140 87 -371 153 -374 323 -659 555 -929 332
-386 701 -670 1121 -863 290 -133 608 -232 871 -271 328 -50 509 -56 804 -31
381 34 654 99 1019 244 212 85 540 274 748 433 191 145 434 383 505 492 33 52
37 62 24 74 -21 22 -67 -15 -194 -154 -147 -161 -352 -343 -520 -462 -142
-101 -391 -237 -562 -310 -586 -247 -1260 -323 -1865 -211 -206 39 -287 59
-465 119 -458 154 -909 435 -1236 772 -279 287 -455 529 -607 833 -95 190
-112 234 -177 446 -37 124 -73 209 -88 209 -4 0 -13 -9 -20 -20z"/>
<path d="M4296 4568 c-81 -281 -151 -524 -230 -803 -52 -186 -110 -365 -132
-407 -8 -16 -28 -34 -45 -40 -21 -7 -29 -16 -29 -34 l0 -24 150 0 150 0 0 24
c0 19 -7 25 -35 30 -87 17 -86 79 6 414 l11 42 215 0 c162 0 215 -3 218 -12 2
-7 20 -67 41 -133 48 -151 57 -252 25 -284 -11 -11 -39 -24 -61 -27 -34 -6
-40 -10 -40 -30 l0 -24 200 0 200 0 0 24 c0 19 -7 26 -29 31 -54 12 -84 66
-142 262 -23 76 -63 210 -90 298 -26 88 -71 237 -98 330 -28 94 -64 213 -80
265 -17 52 -49 157 -72 233 -23 75 -45 137 -48 137 -3 0 -42 -123 -85 -272z
m182 -473 l69 -240 -190 -3 c-104 -1 -191 -1 -193 1 -3 3 67 258 131 477 18
63 39 135 46 160 l12 45 28 -100 c15 -55 59 -208 97 -340z"/>
<path d="M7097 3623 c-15 -14 -6 -41 23 -68 29 -27 30 -28 49 -11 20 18 20 19
-20 52 -45 38 -43 37 -52 27z"/>
<path d="M7367 3592 c-10 -10 -17 -25 -17 -33 0 -13 82 -85 157 -137 18 -12
40 -36 48 -52 18 -34 53 -40 79 -14 23 23 20 40 -14 66 -17 13 -72 60 -123
105 -51 46 -97 83 -103 83 -6 0 -18 -8 -27 -18z"/>
<path d="M6860 3375 c-9 -11 -6 -21 17 -50 31 -38 44 -43 63 -20 10 12 7 21
-16 49 -32 38 -46 43 -64 21z"/>
<path d="M7519 3243 c-122 -116 -161 -198 -85 -179 50 12 177 159 196 227 15
52 -24 35 -111 -48z"/>
<path d="M7540 3124 c-11 -13 -9 -19 13 -42 l27 -26 20 20 c20 20 20 21 2 42
-23 26 -45 28 -62 6z"/>
<path d="M7636 3032 c-63 -20 -159 -108 -187 -171 -32 -69 -37 -181 -10 -251
30 -80 103 -153 175 -176 31 -10 59 -14 63 -9 5 4 2 10 -5 12 -33 12 -110 74
-139 112 -112 145 -58 355 111 432 62 28 163 26 225 -6 105 -53 155 -131 155
-245 1 -62 -4 -84 -27 -131 -28 -58 -86 -119 -148 -154 l-34 -19 28 -4 c70 -9
190 93 223 191 56 164 -33 357 -192 417 -67 25 -168 26 -238 2z"/>
<path d="M6920 2689 c-165 -104 -230 -152 -230 -171 0 -4 15 -8 34 -8 67 0
220 103 334 223 91 97 77 93 -138 -44z"/>
<path d="M6250 2286 c-183 -70 -332 -113 -560 -160 -87 -18 -147 -37 -198 -63
-113 -58 -115 -68 -12 -60 145 11 428 95 670 198 120 52 194 98 155 98 -11 0
-36 -6 -55 -13z"/>
<path d="M3590 2183 c0 -44 117 -89 351 -137 341 -70 487 -87 788 -93 194 -4
289 -2 327 6 51 12 73 25 60 38 -3 3 -97 5 -208 4 -216 -2 -444 15 -657 49
-131 21 -173 32 -425 104 -174 50 -236 58 -236 29z"/>
<path d="M5364 1705 c-4 -8 -4 -25 0 -38 6 -26 174 -216 232 -263 22 -18 80
-69 129 -114 98 -89 249 -193 420 -290 61 -34 140 -80 176 -102 78 -46 135
-59 145 -34 14 38 -4 63 -68 91 -154 67 -299 150 -502 288 -101 69 -269 227
-374 352 -41 49 -85 98 -96 107 -26 22 -55 23 -62 3z"/>
<path d="M3977 1533 c-165 -157 -355 -308 -522 -412 -288 -180 -581 -298 -955
-387 -107 -25 -258 -61 -336 -79 -162 -38 -214 -58 -214 -79 0 -35 254 -12
490 46 501 121 963 329 1300 586 161 122 351 332 386 425 16 43 -35 9 -149
-100z"/>
<path d="M6618 828 c-43 -11 -49 -31 -15 -52 30 -20 317 -96 362 -96 56 0 39
21 -41 51 -38 15 -109 45 -159 68 -98 44 -93 43 -147 29z"/>
<path d="M7163 664 c-3 -9 3 -25 16 -37 18 -18 36 -23 102 -26 129 -5 128 18
-3 59 -76 24 -107 25 -115 4z"/>
<path d="M7527 613 c-12 -11 -7 -41 9 -57 33 -33 161 -11 139 24 -17 28 -128
53 -148 33z"/>
<path d="M2645 209 c-413 -9 -610 -27 -583 -54 2 -3 54 -11 114 -18 162 -18
4887 -18 5094 1 248 22 270 36 82 53 -161 15 -4137 29 -4707 18z"/>
</g>
</svg>
