<svg height='auto' width='auto' viewBox="0 0 100 100" fill="#000000" xmlns="http://www.w3.org/2000/svg" xmlns:xlink="http://www.w3.org/1999/xlink"  version="1.1" x="0px" y="0px"><title>club</title><desc>Created with Sketch.</desc><g stroke="none" stroke-width="1" fill="none" fill-rule="evenodd"><g transform="translate(33.000000, 34.000000)" fill="#000000"><path d="M15.641031,23.1934582 C14.352734,25.0049372 12.2685589,26.1818182 9.91666667,26.1818182 C6.00464969,26.1818182 2.83333333,22.9257073 2.83333333,18.9090909 C2.83333333,14.8924745 6.00464969,11.6363636 9.91666667,11.6363636 C10.4482261,11.6363636 10.9661099,11.6964812 11.4642205,11.8104555 C10.4957343,10.5665575 9.91666667,8.98907479 9.91666667,7.27272727 C9.91666667,3.25611091 13.087983,0 17,0 C20.912017,0 24.0833333,3.25611091 24.0833333,7.27272727 C24.0833333,8.98907479 23.5042657,10.5665575 22.5357795,11.8104555 C23.0338901,11.6964812 23.5517739,11.6363636 24.0833333,11.6363636 C27.9953503,11.6363636 31.1666667,14.8924745 31.1666667,18.9090909 C31.1666667,22.9257073 27.9953503,26.1818182 24.0833333,26.1818182 C21.7314411,26.1818182 19.647266,25.0049372 18.358969,23.1934582 C19.1026598,26.8096203 21.1969433,29.930156 24.0889227,32 L9.91107731,32 C12.8030567,29.930156 14.8973402,26.8096203 15.641031,23.1934582 Z"></path></g></g></svg>